<svg width="130" height="39" viewBox="0 0 130 39" fill="none" xmlns="http://www.w3.org/2000/svg">
<path d="M26.2159 14.7658L27.7855 10.9438C31.2356 4.06989 38.6787 -0.0872893 46.3785 0.439997C46.7469 0.464441 48.8002 0.785702 48.9032 0.892207C49.2262 1.22569 47.5221 2.05503 47.4907 2.44962C44.6744 6.43919 44.1 9.74783 44.6989 14.4532C44.9241 16.2219 43.9813 17.7427 43.131 19.239C42.6316 20.119 40.3671 23.0016 40.313 23.4887C40.0877 25.5228 43.1065 24.861 43.5099 26.6385C43.8137 27.9811 40.636 29.1719 43.6111 30.738C41.1475 32.8507 44.1925 32.7843 44.4719 33.6398C44.6919 34.312 44.0232 34.7922 43.8259 35.3527C43.2078 37.1126 43.5587 37.6102 44.7163 38.9948C36.1802 39.0384 28.3897 32.9083 26.3224 24.676C24.0317 32.8402 16.517 38.9546 7.92849 38.9948C8.77355 37.804 9.30433 37.282 8.87831 35.7315C8.62689 34.8131 7.492 34.0065 8.59197 33.1614C9.0337 32.8227 9.85082 32.9467 9.92939 32.2745L8.81022 30.6298C11.9355 29.6363 8.88355 27.81 9.06513 26.6018C9.31131 24.9623 12.4523 25.4896 12.2742 23.5009C12.2323 23.0225 10.1162 20.325 9.65178 19.541C8.67752 17.8946 7.74517 16.4507 7.95119 14.4585C8.35626 10.5754 8.44356 9.49641 6.93154 5.73905C6.19124 3.89879 5.0354 2.1563 3.52164 0.890461C13.4441 -1.45789 23.7453 4.95685 26.2142 14.764L26.2159 14.7658Z" fill="white"/>
<path d="M52.6484 14.104C50.218 13.0617 48.3096 12.7998 46.1446 14.5528C45.0551 14.2158 45.7448 13.0599 46.4047 12.599C48.1804 11.3576 51.3738 12.482 52.6484 14.1058V14.104Z" fill="white"/>
<path d="M0 14.104C0.932354 12.0944 7.00139 11.0887 7.00313 13.8194C7.00313 15.3751 5.24318 13.8317 4.77701 13.6239C2.96992 12.8242 1.69709 13.4441 0 14.1023V14.104Z" fill="white"/>
<path d="M51.9866 17.8527C51.9115 19.2041 48.1035 20.4175 47.5832 19.2826C47.5465 19.2041 47.5029 18.7292 47.6932 18.7309C49.1895 18.8636 50.5985 18.2996 51.9866 17.8527Z" fill="white"/>
<path d="M5.06509 18.7344C5.13842 21.2032 -0.0279396 18.4935 0.661723 17.8527C2.09517 18.3782 3.49196 18.9195 5.06509 18.7344Z" fill="white"/>
<path d="M63.6987 2.8285V10.9718L63.6882 11.8762C63.6882 12.7614 63.5887 13.4964 63.3914 14.0831C63.1941 14.6697 62.8466 15.2512 62.3508 15.8273C61.4045 16.9256 60.5996 17.4755 59.9361 17.4755C59.7877 17.4755 59.6585 17.4546 59.5432 17.4144L58.9793 17.2329L58.4869 17.1019C58.3525 17.0286 58.2861 16.8871 58.2861 16.6794C58.2861 16.5589 58.3036 16.4175 58.3368 16.2568L58.5777 14.9788C58.6109 14.785 58.679 14.6872 58.782 14.6872C58.9653 14.6872 59.1958 14.8391 59.4734 15.1429L59.8628 15.5794C60.1613 15.9111 60.418 16.0753 60.631 16.0753C61.1478 16.0753 61.4062 15.4345 61.4062 14.1547L61.3853 13.4109V5.83508C61.3853 4.27941 61.366 3.24404 61.3294 2.73072C61.2927 2.21741 61.2107 1.83329 61.0832 1.57838C60.9627 1.34441 60.7864 1.17855 60.5559 1.08601C60.3237 0.991726 59.9099 0.918395 59.3128 0.86427C59.112 0.843318 59.0107 0.745543 59.0107 0.567453C59.0107 0.335237 59.1644 0.220002 59.4734 0.220002C59.6271 0.220002 59.8558 0.23397 60.1578 0.26016C61.1041 0.347459 61.6367 0.391109 61.7571 0.391109C61.9911 0.391109 62.3438 0.361427 62.8135 0.300318C63.779 0.186829 64.3429 0.129211 64.5036 0.129211C64.8056 0.129211 64.9558 0.221748 64.9558 0.405077C64.9558 0.522057 64.8545 0.609356 64.6537 0.672212C64.2853 0.785701 64.0339 0.995219 63.8995 1.30077C63.765 1.60631 63.6987 2.11265 63.6987 2.82326V2.8285Z" fill="white"/>
<path d="M70.5395 10.881L70.6198 11.8866C70.7001 12.4035 70.8956 12.798 71.2082 13.0722C71.5207 13.3463 71.9275 13.4842 72.4303 13.4842C72.7586 13.4842 72.9227 13.5872 72.9227 13.7915C72.9227 13.9958 72.7045 14.0883 72.268 14.0883C72.0794 14.0883 71.8123 14.0709 71.4631 14.0359C70.5918 13.9364 69.883 13.8875 69.34 13.8875C68.6695 13.8875 68.1387 13.9225 67.7511 13.9923C67.4159 14.0569 67.1749 14.0883 67.0265 14.0883C66.8781 14.0883 66.7856 14.0167 66.7454 13.8736L66.7245 13.7915L67.0161 13.5558C67.4997 13.3812 67.8192 13.1699 67.9763 12.9185C68.1335 12.6671 68.2121 12.2498 68.2121 11.6684L68.2225 10.7745V2.76738C68.2225 2.15105 68.1143 1.71281 67.9013 1.45091C67.6865 1.18901 67.2937 1.01616 66.7245 0.92886C66.3823 0.874735 66.1623 0.822355 66.0662 0.769976C65.9702 0.717596 65.9213 0.632043 65.9213 0.509825C65.9213 0.319513 66.0016 0.226976 66.1623 0.233959C66.2827 0.240943 66.4643 0.267133 66.7053 0.314275C66.9462 0.3684 67.353 0.39459 67.9222 0.39459C68.2976 0.39459 68.7638 0.371892 69.3208 0.328242L70.0558 0.270625C70.7472 0.219992 71.2763 0.193802 71.6447 0.193802C71.8664 0.193802 71.9764 0.275863 71.9764 0.439985C71.9764 0.562204 71.9589 0.644265 71.9258 0.686169C71.8926 0.726326 71.8088 0.757754 71.6743 0.778706C71.1907 0.859021 70.8817 0.993462 70.7437 1.18028C70.6058 1.36885 70.5377 1.74947 70.5377 2.32565V10.8792L70.5395 10.881Z" fill="white"/>
<path d="M78.9952 2.53866L84.3153 8.51341L84.6575 8.89578C85.1132 9.4056 85.417 9.66052 85.5706 9.66052C85.7103 9.66052 85.7889 9.45624 85.8011 9.04768C85.8604 7.56708 85.8919 6.15633 85.8919 4.81716C85.8919 3.24229 85.733 2.17724 85.4135 1.62202C85.094 1.06679 84.4689 0.754262 83.5365 0.687915C83.3148 0.673947 83.2048 0.595378 83.2048 0.452207C83.2048 0.274117 83.3026 0.185072 83.4964 0.185072C83.7373 0.185072 84.1284 0.218246 84.6662 0.286339C85.0154 0.326497 85.3052 0.347449 85.5322 0.347449C85.9966 0.347449 86.7317 0.284593 87.7391 0.157136C87.8736 0.143169 87.9713 0.136185 88.0307 0.136185C88.2455 0.136185 88.3537 0.232214 88.3537 0.422526C88.3537 0.593632 88.2455 0.694899 88.0324 0.729819C87.1664 0.890449 86.7352 1.65868 86.7352 3.03102V3.52339L86.592 9.80543L86.5519 10.6697L86.5414 11.7854L86.5519 12.5501L86.592 13.8072C86.592 13.9958 86.5239 14.0848 86.3877 14.0779C86.2673 14.0709 86.1433 13.9975 86.0158 13.8561L76.8634 3.68577C76.7028 3.51117 76.5928 3.42387 76.5317 3.42387C76.371 3.42387 76.2907 3.57402 76.2907 3.87608L76.2802 4.16766V8.06644C76.2802 10.1494 76.3833 11.5444 76.5928 12.2463C76.8145 12.9971 77.4675 13.4231 78.5553 13.5226C78.756 13.5436 78.8573 13.6291 78.8573 13.7793C78.8573 13.9836 78.7526 14.0866 78.5448 14.0866C78.4645 14.0866 78.3335 14.0726 78.1519 14.0464C77.588 13.9521 76.9629 13.905 76.2768 13.905C75.5906 13.905 74.9935 13.9521 74.4627 14.0482C74.227 14.0866 74.0559 14.1058 73.9494 14.1058C73.7678 14.1058 73.677 14.0237 73.677 13.8596C73.677 13.7234 73.7748 13.6274 73.9686 13.5733C74.4574 13.4336 74.8154 13.1438 75.0406 12.7055C75.2658 12.2673 75.3776 11.637 75.3776 10.8146L75.4474 8.42611V4.06988C75.4474 2.00962 74.6862 0.925369 73.1637 0.818864C72.9559 0.804896 72.8511 0.719343 72.8511 0.562204C72.8511 0.370146 72.9664 0.275863 73.1933 0.275863L73.89 0.305545L74.3143 0.295069C74.8381 0.295069 75.4003 0.265387 75.9991 0.204278C76.2209 0.183326 76.406 0.174596 76.5544 0.174596C76.7621 0.174596 76.9263 0.219992 77.0467 0.310783C77.1672 0.401574 77.4221 0.677439 77.8097 1.14012L78.5029 1.9555C78.777 2.27676 78.9411 2.47231 78.9952 2.53866Z" fill="white"/>
<path d="M93.2442 0.00349196C93.8745 0.00349196 94.4908 0.123965 95.0949 0.36491L95.7689 0.646013C96.0709 0.766486 96.2857 0.827595 96.4132 0.827595C96.5074 0.827595 96.6052 0.804898 96.7047 0.757756L97.0871 0.567444C97.1412 0.541254 97.1953 0.527287 97.2477 0.527287C97.3892 0.527287 97.459 0.637283 97.459 0.859023L97.438 1.6744C97.438 1.80185 97.445 1.92233 97.459 2.03582L97.5899 3.0223L97.6912 3.93719C97.7052 4.0175 97.7122 4.0856 97.7122 4.13798C97.7122 4.42606 97.6284 4.57098 97.4607 4.57098C97.3403 4.57098 97.253 4.44352 97.1988 4.19036C97.0033 3.25451 96.5144 2.44437 95.727 1.7617C94.9413 1.07902 94.1085 0.73855 93.2285 0.73855C92.6244 0.73855 92.0971 0.94283 91.6466 1.34964C91.1962 1.75646 90.9709 2.23835 90.9709 2.79183C90.9709 3.30689 91.1682 3.75037 91.5646 4.12401C91.8195 4.36496 92.6156 4.7578 93.9513 5.3008C95.5436 5.95205 96.5982 6.58934 97.115 7.21265C97.7261 7.96342 98.0317 8.86959 98.0317 9.9294C98.0317 11.0975 97.6092 12.1136 96.7641 12.9796C95.919 13.8456 94.9291 14.2786 93.7959 14.2786C93.3332 14.2786 92.5982 14.1215 91.5925 13.8055C91.1228 13.6518 90.7771 13.5506 90.5571 13.5034C90.2481 13.4423 90.07 13.3847 90.0194 13.3271C89.9687 13.2695 89.9268 13.0966 89.8937 12.8085C89.8605 12.4942 89.7592 12.0368 89.5916 11.4397C89.3367 10.5283 89.2092 9.94337 89.2092 9.68845C89.2092 9.36719 89.3122 9.20482 89.5218 9.20482C89.616 9.20482 89.6824 9.28513 89.7225 9.44576C90.0508 10.5964 90.6235 11.5636 91.4354 12.3458C92.2472 13.128 93.0905 13.5191 93.9635 13.5191C94.641 13.5191 95.2486 13.2607 95.7811 12.7422C96.3154 12.2236 96.5825 11.63 96.5825 10.9613C96.5825 10.4322 96.4428 9.99924 96.1652 9.65703C95.8859 9.31656 95.404 8.9953 94.7195 8.69499L93.1883 8.01231C91.7444 7.36804 90.7632 6.7587 90.2463 6.18601C89.7295 5.61333 89.4711 4.84859 89.4711 3.89529C89.4711 2.78833 89.8308 1.86122 90.5519 1.11743C91.273 0.371894 92.1687 0 93.2424 0L93.2442 0.00349196Z" fill="white"/>
<path d="M103.566 10.881L103.647 11.8866C103.727 12.4035 103.923 12.798 104.235 13.0722C104.548 13.3463 104.955 13.4842 105.457 13.4842C105.786 13.4842 105.95 13.5872 105.95 13.7915C105.95 13.9958 105.732 14.0883 105.295 14.0883C105.106 14.0883 104.839 14.0709 104.49 14.0359C103.619 13.9364 102.91 13.8875 102.367 13.8875C101.697 13.8875 101.166 13.9225 100.778 13.9923C100.443 14.0569 100.202 14.0883 100.054 14.0883C99.9052 14.0883 99.8126 14.0167 99.7725 13.8736L99.7515 13.7915L100.043 13.5558C100.527 13.3812 100.846 13.1699 101.003 12.9185C101.161 12.6671 101.239 12.2498 101.239 11.6684L101.25 10.7745V2.76738C101.25 2.15105 101.141 1.71281 100.928 1.45091C100.714 1.18901 100.321 1.01616 99.7515 0.92886C99.4093 0.874735 99.1893 0.822355 99.0933 0.769976C98.9973 0.717596 98.9484 0.632043 98.9484 0.509825C98.9484 0.319513 99.0287 0.226976 99.1893 0.233959C99.3098 0.240943 99.4914 0.267133 99.7323 0.314275C99.9733 0.3684 100.38 0.39459 100.949 0.39459C101.325 0.39459 101.791 0.371892 102.348 0.328242L103.083 0.270625C103.774 0.219992 104.303 0.193802 104.672 0.193802C104.893 0.193802 105.003 0.275863 105.003 0.439985C105.003 0.562204 104.986 0.644265 104.953 0.686169C104.92 0.726326 104.836 0.757754 104.701 0.778706C104.218 0.859021 103.909 0.993462 103.771 1.18028C103.633 1.36885 103.565 1.74947 103.565 2.32565V10.8792L103.566 10.881Z" fill="white"/>
<path d="M113.515 8.61817V11.5828L113.566 12.2673C113.679 13.025 114.35 13.4371 115.577 13.5034C115.792 13.5174 115.898 13.6134 115.898 13.7898C115.898 13.9871 115.748 14.0866 115.446 14.0866C115.285 14.0866 115.111 14.0761 114.924 14.0552L113.498 13.9277C113.236 13.8998 112.845 13.8858 112.323 13.8858C111.071 13.8858 110.236 13.9225 109.821 13.9958C109.546 14.0429 109.346 14.0656 109.218 14.0656C109.065 14.0656 108.988 13.9539 108.988 13.7269C108.988 13.6047 109.082 13.5296 109.269 13.5017C110.02 13.3812 110.528 13.1403 110.793 12.7788C111.058 12.4174 111.191 11.7871 111.191 10.8897V8.97086C111.191 8.52214 111.043 8.05771 110.748 7.57407C110.398 6.9979 110.013 6.30823 109.59 5.50508L108.061 2.63294C107.45 1.48234 106.735 0.866007 105.918 0.785692C105.67 0.76474 105.546 0.670457 105.546 0.499351C105.546 0.288087 105.641 0.181583 105.827 0.181583C105.995 0.181583 106.255 0.202534 106.611 0.242692C107.334 0.323007 107.991 0.363165 108.579 0.363165C109.122 0.363165 109.674 0.333483 110.236 0.272374C110.652 0.232216 110.929 0.211264 111.069 0.211264C111.35 0.211264 111.491 0.296817 111.491 0.467924C111.491 0.611094 111.378 0.707123 111.149 0.754265C110.632 0.855532 110.374 1.07902 110.374 1.42647C110.374 1.70757 110.618 2.3239 111.109 3.27372L111.895 4.7997C112.216 5.41604 112.415 5.80364 112.488 5.96427C112.717 6.4322 112.939 6.6679 113.152 6.6679C113.365 6.6679 113.646 6.32569 113.993 5.64301C114.081 5.46842 114.304 5.0616 114.664 4.41733C115.399 3.09213 115.766 2.26105 115.766 1.92756C115.766 1.64646 115.601 1.38107 115.273 1.13489C114.945 0.886959 114.57 0.743789 114.147 0.703631C113.932 0.675695 113.826 0.593634 113.826 0.457448C113.826 0.246184 113.913 0.139679 114.088 0.139679C114.276 0.139679 114.447 0.150155 114.601 0.169361L115.266 0.260152C115.528 0.293325 115.863 0.310785 116.274 0.310785C116.495 0.310785 116.74 0.300309 117.009 0.281103L117.856 0.23047C118.07 0.216502 118.336 0.209518 118.652 0.209518C118.833 0.209518 118.924 0.288087 118.924 0.445226C118.924 0.588396 118.804 0.687917 118.563 0.742043C118.06 0.862515 117.653 1.08775 117.34 1.41599C117.028 1.74424 116.635 2.36755 116.158 3.28594C115.306 4.92716 114.526 6.30823 113.815 7.42741C113.674 7.63518 113.588 7.80279 113.559 7.93025C113.529 8.05771 113.513 8.28468 113.513 8.61468L113.515 8.61817Z" fill="white"/>
<path d="M69.4936 31.8799H64.7253C64.2487 31.8799 63.9553 31.941 63.8453 32.065C63.7353 32.1889 63.6795 32.5154 63.6795 33.0445V35.5447C63.6795 36.4963 63.8331 37.1807 64.1422 37.598C64.4512 38.017 64.9575 38.2248 65.6612 38.2248C65.8899 38.2248 66.0034 38.3138 66.0034 38.4902C66.0034 38.7015 65.8288 38.808 65.4796 38.808C65.3591 38.808 65.1199 38.787 64.7655 38.7468C63.9745 38.6526 63.2465 38.6054 62.583 38.6054C62.1675 38.6054 61.614 38.6421 60.9226 38.7154C60.514 38.7626 60.2556 38.7853 60.1474 38.7853C59.9326 38.7853 59.8261 38.6735 59.8261 38.4483C59.8261 38.3051 59.9099 38.2231 60.0775 38.2021C60.5332 38.1288 60.8597 37.921 61.0588 37.5788C61.2561 37.2366 61.3556 36.718 61.3556 36.0214L61.3661 35.4784V27.0959C61.3661 26.607 61.2334 26.2456 60.968 26.0151C60.7026 25.7847 60.212 25.5979 59.4944 25.4564C59.3058 25.4163 59.2133 25.3168 59.2133 25.1596C59.2133 24.9623 59.3198 24.8628 59.5345 24.8628C59.655 24.8628 59.8767 24.8872 60.198 24.9361C60.741 25.0217 61.3783 25.0636 62.1098 25.0636C62.3578 25.0636 62.8885 25.0199 63.6987 24.9326C64.1823 24.8855 64.5472 24.8628 64.7952 24.8628C65.0431 24.8628 65.1566 24.9553 65.1566 25.1387C65.1566 25.2888 65.0588 25.3814 64.865 25.4145C64.0741 25.549 63.6777 26.0466 63.6777 26.9108V29.4914C63.6777 30.1741 63.7266 30.5739 63.8226 30.6909C63.9204 30.8079 64.2434 30.8672 64.7934 30.8672H69.4919C69.9004 30.8672 70.1501 30.7852 70.2409 30.621C70.3317 30.4569 70.3771 30.003 70.3771 29.2574V27.0942C70.3771 26.2351 69.9039 25.7201 68.9593 25.5455L68.4966 25.4547C68.3081 25.4198 68.2155 25.322 68.2155 25.1579C68.2155 24.9606 68.322 24.8611 68.5368 24.8611C68.6573 24.8611 68.879 24.8855 69.2003 24.9344C69.7503 25.0199 70.391 25.0618 71.1208 25.0618C71.3758 25.0618 71.9048 25.0182 72.7097 24.9309C73.1933 24.8838 73.5582 24.8611 73.8062 24.8611C74.0541 24.8611 74.1676 24.9536 74.1676 25.1369C74.1676 25.2871 74.0698 25.3796 73.876 25.4128C73.0851 25.5472 72.6887 26.0448 72.6887 26.9091V35.5377C72.6887 36.4893 72.8406 37.1737 73.1462 37.591C73.4517 38.01 73.9493 38.2178 74.6407 38.2178C74.8887 38.2178 75.0126 38.3069 75.0126 38.4832C75.0126 38.6945 74.838 38.801 74.4889 38.801C74.3684 38.801 74.1327 38.78 73.7852 38.7399C72.9873 38.6456 72.2592 38.5984 71.6027 38.5984C71.1802 38.5984 70.6232 38.6351 69.9336 38.7084C69.525 38.7556 69.2666 38.7783 69.1584 38.7783C68.9436 38.7783 68.8371 38.6665 68.8371 38.4413C68.8371 38.2981 68.9209 38.2161 69.0885 38.1951C69.5442 38.1218 69.8707 37.914 70.0698 37.5718C70.2671 37.2296 70.3666 36.711 70.3666 36.0144L70.3771 35.4714V33.261C70.3771 32.6045 70.3334 32.2081 70.2461 32.0702C70.1588 31.9323 69.9074 31.8642 69.4919 31.8642L69.4936 31.8799Z" fill="white"/>
<path d="M82.8836 26.1042L87.4615 36.608C87.6903 37.137 87.9574 37.5334 88.2664 37.7935C88.5755 38.0554 88.9736 38.2283 89.4642 38.3156C89.5847 38.3365 89.6458 38.4326 89.6458 38.6019C89.6458 38.787 89.5689 38.8743 89.4135 38.8691C89.3262 38.8621 89.1988 38.8429 89.0312 38.8079C88.5144 38.6945 87.6815 38.6368 86.5327 38.6368C85.3838 38.6368 84.5911 38.6892 84.1756 38.7957C84.0743 38.8237 83.987 38.8376 83.9137 38.8376C83.7251 38.8376 83.6308 38.7416 83.6308 38.5495C83.6308 38.4535 83.7042 38.3819 83.8526 38.3348C84.1738 38.2405 84.441 38.0729 84.6522 37.8319C84.8635 37.591 84.9683 37.3361 84.9683 37.0672C84.9683 36.6918 84.6767 35.866 84.0953 34.5931C83.9137 34.2038 83.7164 33.9821 83.4982 33.9244C83.2799 33.8668 82.5099 33.8389 81.1865 33.8389H79.8229L78.9202 33.9995C78.6723 34.113 78.3912 34.5547 78.0769 35.3247L77.7661 36.0982C77.6718 36.3182 77.6264 36.5434 77.6264 36.7704C77.6264 37.6137 78.2166 38.1026 79.3968 38.2353C79.6518 38.2702 79.7757 38.368 79.7687 38.5321C79.7548 38.7102 79.6343 38.7992 79.4056 38.7992C79.2851 38.7992 79.114 38.7783 78.8923 38.7381C78.4488 38.6508 78.0524 38.6072 77.7032 38.6072C77.3872 38.6072 76.8774 38.6403 76.1703 38.7084C75.6465 38.7626 75.32 38.7887 75.1925 38.7887C75.004 38.7887 74.9097 38.7067 74.9097 38.5426C74.9097 38.4064 75.0039 38.3034 75.1908 38.2353C75.5522 38.1218 75.8438 37.9123 76.0603 37.6085C76.2785 37.3029 76.6015 36.6621 77.031 35.6844L79.7775 29.3569C79.9992 28.8541 80.1529 28.5101 80.2402 28.3216L81.176 26.4027L81.6596 25.4582V25.4879C81.8744 24.978 82.0176 24.7231 82.0926 24.7231C82.1991 24.7231 82.3842 25.0042 82.6461 25.5682L82.8871 26.1007L82.8836 26.1042ZM83.2607 32.3932L81.946 29.3238C81.6317 28.5887 81.4082 28.2203 81.2738 28.2203C81.1935 28.2203 81.0468 28.4578 80.832 28.9327L80.6417 29.3535L79.4684 32.0318L79.3584 32.2832C79.3113 32.3845 79.2886 32.47 79.2886 32.5451C79.2886 32.7721 79.5295 32.8856 80.0114 32.8856H82.9813C83.2363 32.8856 83.362 32.8157 83.362 32.6743C83.362 32.6411 83.3445 32.5835 83.3113 32.5032L83.2607 32.3932Z" fill="white"/>
<path d="M96.2333 33.3413V36.306L96.2839 36.9904C96.3974 37.7481 97.0679 38.1602 98.2953 38.2265C98.5101 38.2405 98.6166 38.3365 98.6166 38.5129C98.6166 38.7102 98.4664 38.8097 98.1644 38.8097C98.0037 38.8097 97.8291 38.7992 97.6423 38.7783L96.2159 38.6508C95.954 38.6229 95.5629 38.6089 95.0408 38.6089C93.7889 38.6089 92.9544 38.6456 92.5388 38.7189C92.2647 38.766 92.0639 38.7887 91.9364 38.7887C91.7828 38.7887 91.706 38.677 91.706 38.45C91.706 38.3278 91.8003 38.2527 91.9871 38.2248C92.7379 38.1043 93.2459 37.8634 93.5113 37.502C93.7767 37.1405 93.9094 36.5102 93.9094 35.6128V33.694C93.9094 33.2453 93.761 32.7808 93.4659 32.2972C93.1167 31.721 92.7309 31.0313 92.3083 30.2282L90.7789 27.3561C90.1678 26.2055 89.4537 25.5891 88.6365 25.5088C88.3886 25.4879 88.2646 25.3936 88.2646 25.2225C88.2646 25.0112 88.3589 24.9047 88.5458 24.9047C88.7134 24.9047 88.9735 24.9256 89.3297 24.9658C90.0525 25.0461 90.709 25.0863 91.2974 25.0863C91.8404 25.0863 92.3922 25.0566 92.9544 24.9955C93.3699 24.9553 93.6475 24.9344 93.7872 24.9344C94.0683 24.9344 94.2097 25.0199 94.2097 25.191C94.2097 25.3342 94.0962 25.4302 93.8675 25.4774C93.3507 25.5786 93.0923 25.8021 93.0923 26.1496C93.0923 26.4307 93.3367 27.047 93.8273 27.9968L94.613 29.5228C94.9343 30.1392 95.1333 30.5268 95.2067 30.6874C95.4354 31.1553 95.6571 31.391 95.8702 31.391C96.0832 31.391 96.3643 31.0488 96.7117 30.3661C96.799 30.1915 97.0225 29.7847 97.3822 29.1404C98.1172 27.8152 98.4839 26.9842 98.4839 26.6507C98.4839 26.3696 98.3198 26.1042 97.9915 25.858C97.6633 25.6101 97.2879 25.4669 96.8654 25.4267C96.6506 25.3988 96.5441 25.3167 96.5441 25.1806C96.5441 24.9693 96.6314 24.8628 96.806 24.8628C96.9946 24.8628 97.1657 24.8733 97.3193 24.8925L97.9845 24.9833C98.2464 25.0164 98.5817 25.0339 98.992 25.0339C99.2137 25.0339 99.4581 25.0234 99.727 25.0042L100.574 24.9536C100.789 24.9396 101.054 24.9326 101.37 24.9326C101.552 24.9326 101.642 25.0112 101.642 25.1683C101.642 25.3115 101.522 25.411 101.281 25.4652C100.778 25.5856 100.371 25.8109 100.059 26.1391C99.7462 26.4674 99.3534 27.0907 98.8767 28.0091C98.0247 29.6503 97.2442 31.0313 96.5336 32.1505C96.3922 32.3583 96.3066 32.5259 96.277 32.6534C96.2473 32.7808 96.2316 33.0078 96.2316 33.3378L96.2333 33.3413Z" fill="white"/>
<path d="M108.527 24.7056C110.618 24.7056 112.309 25.315 113.597 26.5319C114.886 27.7489 115.528 29.3482 115.528 31.3282C115.528 33.4827 114.865 35.3073 113.536 36.8053C112.242 38.2684 110.458 39 108.185 39C105.911 39 104.275 38.3645 102.973 37.0916C101.672 35.8206 101.021 34.12 101.021 31.9934C101.021 31.0802 101.185 30.1723 101.513 29.2696C101.841 28.367 102.288 27.611 102.851 26.9999C103.502 26.2823 104.328 25.7201 105.33 25.3133C106.332 24.9064 107.397 24.7039 108.523 24.7039L108.527 24.7056ZM107.802 25.4617C106.454 25.4617 105.401 25.961 104.644 26.9597C103.886 27.9584 103.507 29.35 103.507 31.1344C103.507 33.24 103.984 34.9528 104.935 36.2693C105.887 37.5875 107.125 38.2457 108.647 38.2457C110.021 38.2457 111.121 37.701 111.947 36.6115C112.771 35.522 113.185 34.0641 113.185 32.2413C113.185 31.1885 112.995 30.1601 112.612 29.1579C112.23 28.1557 111.72 27.3595 111.083 26.7694C110.158 25.8982 109.065 25.4617 107.804 25.4617H107.802Z" fill="white"/>
<path d="M124.249 27.4032V34.979C124.249 36.1122 124.413 36.9153 124.742 37.3885C125.07 37.8616 125.65 38.1253 126.482 38.1776C126.723 38.1986 126.844 38.3173 126.844 38.5356C126.844 38.6927 126.739 38.7713 126.531 38.7713C126.484 38.7713 126.4 38.7678 126.28 38.7608L125.526 38.7311L124.269 38.6508C124.167 38.6438 124.035 38.6403 123.867 38.6403C123.478 38.6403 123.128 38.6508 122.821 38.67L120.598 38.801C120.365 38.8272 120.202 38.8411 120.115 38.8411C119.907 38.8411 119.806 38.7521 119.813 38.5757C119.82 38.4256 119.853 38.3295 119.914 38.2842C119.975 38.2388 120.104 38.2108 120.307 38.1969C120.831 38.1637 121.234 37.9734 121.519 37.6294C121.803 37.2855 121.946 36.8123 121.946 36.2152L121.936 35.742V26.8096C121.936 26.2805 121.651 26.0151 121.08 26.0151C119.739 26.0151 118.823 26.1129 118.334 26.3085C117.978 26.4569 117.742 26.6227 117.625 26.8078C117.508 26.9929 117.349 27.4521 117.147 28.1854L117.066 28.4682C116.993 28.7441 116.878 28.882 116.724 28.882C116.502 28.882 116.399 28.779 116.412 28.5695C116.419 28.3809 116.452 28.1208 116.513 27.7856L116.614 26.9108L116.735 26.0151L116.804 25.4023C116.831 25.1404 116.972 25.0095 117.227 25.0095C117.293 25.0095 117.409 25.0164 117.569 25.0304C117.831 25.0514 118.203 25.0601 118.687 25.0601L120.738 25.081L123.183 25.1107C124.759 25.1107 126.428 25.0671 128.192 24.9798C128.541 24.9658 128.764 24.9588 128.866 24.9588C129.234 24.9588 129.43 25.1125 129.449 25.4215L129.5 26.1461C129.506 26.2596 129.54 26.5319 129.601 26.9615C129.648 27.3176 129.671 27.6022 129.671 27.817C129.671 28.0317 129.58 28.1487 129.398 28.1487C129.245 28.1487 129.136 28.0213 129.077 27.7646C128.936 27.1378 128.667 26.6873 128.267 26.4097C127.867 26.1339 127.289 25.9959 126.531 25.9959C125.512 25.9959 124.876 26.0745 124.625 26.2316C124.373 26.3888 124.248 26.7799 124.248 27.4032H124.249Z" fill="white"/>
</svg>
